<mxfile host="app.diagrams.net" modified="2023-05-06T06:47:22.619Z" agent="Mozilla/5.0 (Windows NT 10.0; Win64; x64) AppleWebKit/537.36 (KHTML, like Gecko) Chrome/112.0.0.0 Safari/537.36" version="21.2.9" etag="W0HUR26HuSOh_Pp3oqp4" type="github">
  <diagram name="Page-1" id="bkq2IcwuAPbwdLnBefYC">
    <mxGraphModel>
      <root>
        <mxCell id="0" />
        <mxCell id="1" parent="0" />
      </root>
    </mxGraphModel>
  </diagram>
</mxfile>
